<svg width="17" height="15" viewBox="0 0 17 15" fill="none" xmlns="http://www.w3.org/2000/svg">
<path d="M14.3888 2.11656C13.2888 1.57017 12.1172 1.16756 10.8829 0.9375C10.7309 1.22508 10.552 1.6181 10.4358 1.93443C9.12998 1.72354 7.83315 1.72354 6.55422 1.93443C6.42901 1.6181 6.25014 1.22508 6.09809 0.9375C4.86387 1.16756 3.69226 1.57017 2.59219 2.11656C0.374165 5.70168 -0.225059 9.20055 0.0700813 12.6419C1.54578 13.8209 2.96782 14.5303 4.37197 15C4.72077 14.4919 5.02486 13.9456 5.29317 13.38C4.78338 13.1787 4.30042 12.9199 3.8443 12.6227C3.96951 12.5268 4.08578 12.4214 4.20204 12.3255C7.00139 13.7251 10.0333 13.7251 12.7969 12.3255C12.9131 12.431 13.0294 12.5268 13.1546 12.6227C12.6985 12.9199 12.2066 13.1691 11.7057 13.38C11.9741 13.9456 12.2781 14.4919 12.6269 15C14.0311 14.5303 15.4621 13.8209 16.9288 12.6419C17.2776 8.64457 16.3296 5.18404 14.4067 2.11656H14.3888ZM5.6688 10.533C4.8281 10.533 4.13944 9.69901 4.13944 8.67333C4.13944 7.64764 4.81021 6.81367 5.6688 6.81367C6.52739 6.81367 7.2071 7.64764 7.19815 8.67333C7.19815 9.68943 6.52739 10.533 5.6688 10.533ZM11.3122 10.533C10.4715 10.533 9.78287 9.69901 9.78287 8.67333C9.78287 7.64764 10.4536 6.81367 11.3122 6.81367C12.1708 6.81367 12.8505 7.64764 12.8416 8.67333C12.8416 9.68943 12.1708 10.533 11.3122 10.533Z" fill="white"/>
</svg>
