<svg width="15" height="12" viewBox="0 0 15 12" fill="none" xmlns="http://www.w3.org/2000/svg">
<path fill-rule="evenodd" clip-rule="evenodd" d="M5.68777 8.27375V3.55875L10.2103 5.91625L5.68777 8.27375ZM14.854 2.545C14.7253 1.45 14.4628 1.1325 14.279 0.98625C13.9815 0.755 13.444 0.67375 12.7253 0.62375C11.569 0.5475 9.61277 0.5 7.49652 0.5C5.37777 0.5 3.42402 0.5475 2.26902 0.625C1.55027 0.675 1.01152 0.75625 0.715273 0.9875C0.530273 1.1325 0.269023 1.45 0.137773 2.545C-0.0472266 4.12 -0.0472266 7.7125 0.137773 9.28875C0.267773 10.3813 0.529023 10.7 0.712773 10.845C1.01027 11.0787 1.54902 11.1575 2.26777 11.2075C3.42277 11.285 5.37652 11.3325 7.49527 11.3325C9.61402 11.3325 11.5678 11.285 12.724 11.2075C13.4428 11.1575 13.9803 11.0787 14.2778 10.845C14.4628 10.7 14.724 10.3813 14.8528 9.28875C15.0378 7.7125 15.0378 4.12 14.8528 2.545H14.854Z" fill="white"/>
</svg>
