<svg width="135" height="41" viewBox="0 0 135 41" fill="none" xmlns="http://www.w3.org/2000/svg">
<rect width="135" height="41" fill="white"/>
<path d="M48.9395 25H47.4102L46.6543 22.8613H43.3496L42.623 25H41.0996L44.2461 16.5977H45.8164L48.9395 25ZM46.2852 21.7246L45.1191 18.373C45.084 18.2637 45.0469 18.0879 45.0078 17.8457H44.9844C44.9492 18.0684 44.9102 18.2441 44.8672 18.373L43.7129 21.7246H46.2852ZM51.3125 25H49.9473V16.1172H51.3125V25ZM56.252 24.9355C55.9863 25.0684 55.6367 25.1348 55.2031 25.1348C54.0391 25.1348 53.457 24.5762 53.457 23.459V20.0664H52.4551V19H53.457V17.6113L54.8164 17.2246V19H56.252V20.0664H54.8164V23.0664C54.8164 23.4219 54.8809 23.6758 55.0098 23.8281C55.1387 23.9805 55.3535 24.0566 55.6543 24.0566C55.8848 24.0566 56.084 23.9902 56.252 23.8574V24.9355ZM63.4355 24.6484C62.8027 24.9766 62.0156 25.1406 61.0742 25.1406C59.8555 25.1406 58.8789 24.7559 58.1445 23.9863C57.4102 23.2168 57.043 22.207 57.043 20.957C57.043 19.6133 57.4551 18.5273 58.2793 17.6992C59.1074 16.8711 60.1523 16.457 61.4141 16.457C62.2266 16.457 62.9004 16.5723 63.4355 16.8027V18.1855C62.8691 17.8496 62.2441 17.6816 61.5605 17.6816C60.6504 17.6816 59.9121 17.9727 59.3457 18.5547C58.7832 19.1367 58.502 19.9141 58.502 20.8867C58.502 21.8125 58.7656 22.5508 59.293 23.1016C59.8203 23.6484 60.5137 23.9219 61.373 23.9219C62.166 23.9219 62.8535 23.7344 63.4355 23.3594V24.6484ZM67.5371 25.1406C66.6113 25.1406 65.8711 24.8613 65.3164 24.3027C64.7656 23.7402 64.4902 22.9961 64.4902 22.0703C64.4902 21.0625 64.7773 20.2754 65.3516 19.709C65.9297 19.1426 66.707 18.8594 67.6836 18.8594C68.6211 18.8594 69.3516 19.1348 69.875 19.6855C70.3984 20.2363 70.6602 21 70.6602 21.9766C70.6602 22.9336 70.377 23.7012 69.8105 24.2793C69.248 24.8535 68.4902 25.1406 67.5371 25.1406ZM67.6016 19.9434C67.0703 19.9434 66.6504 20.1289 66.3418 20.5C66.0332 20.8711 65.8789 21.3828 65.8789 22.0352C65.8789 22.6641 66.0352 23.1602 66.3477 23.5234C66.6602 23.8828 67.0781 24.0625 67.6016 24.0625C68.1367 24.0625 68.5469 23.8848 68.832 23.5293C69.1211 23.1738 69.2656 22.668 69.2656 22.0117C69.2656 21.3516 69.1211 20.8418 68.832 20.4824C68.5469 20.123 68.1367 19.9434 67.6016 19.9434ZM72.7344 17.7402C72.5117 17.7402 72.3203 17.668 72.1602 17.5234C72.0039 17.3789 71.9258 17.1953 71.9258 16.9727C71.9258 16.75 72.0039 16.5645 72.1602 16.416C72.3203 16.2676 72.5117 16.1934 72.7344 16.1934C72.9648 16.1934 73.1602 16.2676 73.3203 16.416C73.4805 16.5645 73.5605 16.75 73.5605 16.9727C73.5605 17.1836 73.4805 17.3652 73.3203 17.5176C73.1602 17.666 72.9648 17.7402 72.7344 17.7402ZM73.4082 25H72.0488V19H73.4082V25ZM80.5332 25H79.1738V21.6191C79.1738 20.498 78.7773 19.9375 77.9844 19.9375C77.5703 19.9375 77.2285 20.0938 76.959 20.4062C76.6895 20.7148 76.5547 21.1055 76.5547 21.5781V25H75.1895V19H76.5547V19.9961H76.5781C77.0273 19.2383 77.6758 18.8594 78.5234 18.8594C79.1758 18.8594 79.6738 19.0723 80.0176 19.498C80.3613 19.9199 80.5332 20.5312 80.5332 21.332V25ZM87.2773 22.3691H83.1875C83.2031 22.9238 83.373 23.3516 83.6973 23.6523C84.0254 23.9531 84.4746 24.1035 85.0449 24.1035C85.6855 24.1035 86.2734 23.9121 86.8086 23.5293V24.625C86.2617 24.9688 85.5391 25.1406 84.6406 25.1406C83.7578 25.1406 83.0645 24.8691 82.5605 24.3262C82.0605 23.7793 81.8105 23.0117 81.8105 22.0234C81.8105 21.0898 82.0859 20.3301 82.6367 19.7441C83.1914 19.1543 83.8789 18.8594 84.6992 18.8594C85.5195 18.8594 86.1543 19.123 86.6035 19.6504C87.0527 20.1777 87.2773 20.9102 87.2773 21.8477V22.3691ZM85.9648 21.4082C85.9609 20.9199 85.8457 20.541 85.6191 20.2715C85.3926 19.998 85.0801 19.8613 84.6816 19.8613C84.291 19.8613 83.959 20.0039 83.6855 20.2891C83.416 20.5742 83.25 20.9473 83.1875 21.4082H85.9648ZM92.0527 20.2949C91.8887 20.166 91.6523 20.1016 91.3438 20.1016C90.9414 20.1016 90.6055 20.2832 90.3359 20.6465C90.0664 21.0098 89.9316 21.5039 89.9316 22.1289V25H88.5723V19H89.9316V20.2363H89.9551C90.0879 19.8145 90.291 19.4863 90.5645 19.252C90.8418 19.0137 91.1504 18.8945 91.4902 18.8945C91.7363 18.8945 91.9238 18.9316 92.0527 19.0059V20.2949ZM92.6387 24.8125V23.5527C93.1465 23.9395 93.707 24.1328 94.3203 24.1328C95.1406 24.1328 95.5508 23.8906 95.5508 23.4062C95.5508 23.2695 95.5156 23.1543 95.4453 23.0605C95.375 22.9629 95.2793 22.877 95.1582 22.8027C95.041 22.7285 94.9004 22.6621 94.7363 22.6035C94.5762 22.5449 94.3965 22.4785 94.1973 22.4043C93.9512 22.3066 93.7285 22.2031 93.5293 22.0938C93.334 21.9844 93.1699 21.8613 93.0371 21.7246C92.9082 21.584 92.8105 21.4258 92.7441 21.25C92.6777 21.0742 92.6445 20.8691 92.6445 20.6348C92.6445 20.3457 92.7129 20.0918 92.8496 19.873C92.9863 19.6504 93.1699 19.4648 93.4004 19.3164C93.6309 19.1641 93.8926 19.0508 94.1855 18.9766C94.4785 18.8984 94.7812 18.8594 95.0938 18.8594C95.6484 18.8594 96.1445 18.9434 96.582 19.1113V20.3008C96.1602 20.0117 95.6758 19.8672 95.1289 19.8672C94.957 19.8672 94.8008 19.8848 94.6602 19.9199C94.5234 19.9551 94.4062 20.0039 94.3086 20.0664C94.2109 20.1289 94.1348 20.2051 94.0801 20.2949C94.0254 20.3809 93.998 20.4766 93.998 20.582C93.998 20.7109 94.0254 20.8203 94.0801 20.9102C94.1348 21 94.2148 21.0801 94.3203 21.1504C94.4297 21.2168 94.5586 21.2793 94.707 21.3379C94.8594 21.3926 95.0332 21.4531 95.2285 21.5195C95.4863 21.625 95.7168 21.7324 95.9199 21.8418C96.127 21.9512 96.3027 22.0762 96.4473 22.2168C96.5918 22.3535 96.7031 22.5137 96.7812 22.6973C96.8594 22.877 96.8984 23.0918 96.8984 23.3418C96.8984 23.6465 96.8281 23.9121 96.6875 24.1387C96.5469 24.3652 96.3594 24.5527 96.125 24.7012C95.8906 24.8496 95.6191 24.959 95.3105 25.0293C95.0059 25.1035 94.6836 25.1406 94.3438 25.1406C93.6875 25.1406 93.1191 25.0312 92.6387 24.8125ZM98.7559 25.1289C98.5215 25.1289 98.3223 25.0527 98.1582 24.9004C97.9941 24.7441 97.9121 24.5586 97.9121 24.3438C97.9121 24.125 97.9941 23.9375 98.1582 23.7812C98.3223 23.625 98.5215 23.5469 98.7559 23.5469C98.9941 23.5469 99.1953 23.625 99.3594 23.7812C99.5273 23.9375 99.6113 24.125 99.6113 24.3438C99.6113 24.5586 99.5273 24.7441 99.3594 24.9004C99.1953 25.0527 98.9941 25.1289 98.7559 25.1289ZM102.453 25H101.088V16.1172H102.453V25ZM104.914 17.7402C104.691 17.7402 104.5 17.668 104.34 17.5234C104.184 17.3789 104.105 17.1953 104.105 16.9727C104.105 16.75 104.184 16.5645 104.34 16.416C104.5 16.2676 104.691 16.1934 104.914 16.1934C105.145 16.1934 105.34 16.2676 105.5 16.416C105.66 16.5645 105.74 16.75 105.74 16.9727C105.74 17.1836 105.66 17.3652 105.5 17.5176C105.34 17.666 105.145 17.7402 104.914 17.7402ZM105.588 25H104.229V19H105.588V25ZM112.537 19L110.217 25H108.746L106.537 19H108.014L109.344 23.1953C109.445 23.5039 109.508 23.7734 109.531 24.0039H109.549C109.584 23.7148 109.639 23.4531 109.713 23.2188L111.107 19H112.537ZM118.543 22.3691H114.453C114.469 22.9238 114.639 23.3516 114.963 23.6523C115.291 23.9531 115.74 24.1035 116.311 24.1035C116.951 24.1035 117.539 23.9121 118.074 23.5293V24.625C117.527 24.9688 116.805 25.1406 115.906 25.1406C115.023 25.1406 114.33 24.8691 113.826 24.3262C113.326 23.7793 113.076 23.0117 113.076 22.0234C113.076 21.0898 113.352 20.3301 113.902 19.7441C114.457 19.1543 115.145 18.8594 115.965 18.8594C116.785 18.8594 117.42 19.123 117.869 19.6504C118.318 20.1777 118.543 20.9102 118.543 21.8477V22.3691ZM117.23 21.4082C117.227 20.9199 117.111 20.541 116.885 20.2715C116.658 19.998 116.346 19.8613 115.947 19.8613C115.557 19.8613 115.225 20.0039 114.951 20.2891C114.682 20.5742 114.516 20.9473 114.453 21.4082H117.23Z" fill="#3067F0"/>
<rect x="17" y="13" width="6.90909" height="6.90909" fill="#3067F0"/>
<rect x="17" y="21.6364" width="6.90909" height="6.90909" fill="#3067F0"/>
<path d="M25.6364 13H36V15.5909H25.6364V13Z" fill="#3067F0"/>
<path d="M25.6364 21.6364H36V24.2273H25.6364V21.6364Z" fill="#3067F0"/>
<rect x="25.6364" y="17.3182" width="6.90909" height="2.59091" fill="#3067F0"/>
<rect x="25.6364" y="25.9545" width="6.90909" height="2.59091" fill="#3067F0"/>
</svg>
