<svg width="176" height="33" viewBox="0 0 176 33" fill="none" xmlns="http://www.w3.org/2000/svg">
<path d="M59.2324 24.4995H56.6836L55.4238 20.9351H49.916L48.7051 24.4995H46.166L51.4102 10.4956H54.0273L59.2324 24.4995ZM54.8086 19.0405L52.8652 13.4546C52.8066 13.2723 52.7448 12.9793 52.6797 12.5757H52.6406C52.582 12.9468 52.5169 13.2397 52.4453 13.4546L50.5215 19.0405H54.8086ZM63.1875 24.4995H60.9121V9.69482H63.1875V24.4995ZM71.4199 24.3921C70.9772 24.6134 70.3945 24.7241 69.6719 24.7241C67.7318 24.7241 66.7617 23.7931 66.7617 21.9312V16.2769H65.0918V14.4995H66.7617V12.1851L69.0273 11.5405V14.4995H71.4199V16.2769H69.0273V21.2769C69.0273 21.8693 69.1348 22.2925 69.3496 22.5464C69.5645 22.8003 69.9225 22.9272 70.4238 22.9272C70.8079 22.9272 71.14 22.8166 71.4199 22.5952V24.3921ZM83.3926 23.9136C82.3379 24.4604 81.026 24.7339 79.457 24.7339C77.4258 24.7339 75.7982 24.0926 74.5742 22.8101C73.3503 21.5275 72.7383 19.8446 72.7383 17.7612C72.7383 15.5216 73.4251 13.7118 74.7988 12.3315C76.179 10.9513 77.9206 10.2612 80.0234 10.2612C81.3776 10.2612 82.5007 10.4533 83.3926 10.8374V13.1421C82.4486 12.5822 81.4069 12.3022 80.2676 12.3022C78.7507 12.3022 77.5202 12.7873 76.5762 13.7573C75.6387 14.7274 75.1699 16.0229 75.1699 17.644C75.1699 19.187 75.6094 20.4175 76.4883 21.3354C77.3672 22.2469 78.5228 22.7026 79.9551 22.7026C81.2767 22.7026 82.4225 22.3901 83.3926 21.7651V23.9136ZM90.2285 24.7339C88.6855 24.7339 87.4518 24.2684 86.5273 23.3374C85.6094 22.3999 85.1504 21.1597 85.1504 19.6167C85.1504 17.937 85.6289 16.6252 86.5859 15.6812C87.5495 14.7371 88.8451 14.2651 90.4727 14.2651C92.0352 14.2651 93.2526 14.7241 94.125 15.6421C94.9974 16.5601 95.4336 17.8328 95.4336 19.4604C95.4336 21.0555 94.9616 22.3348 94.0176 23.2983C93.0801 24.2554 91.8171 24.7339 90.2285 24.7339ZM90.3359 16.0718C89.4505 16.0718 88.7507 16.381 88.2363 16.9995C87.722 17.618 87.4648 18.4709 87.4648 19.5581C87.4648 20.6063 87.7253 21.4331 88.2461 22.0386C88.7669 22.6375 89.4635 22.937 90.3359 22.937C91.2279 22.937 91.9115 22.6408 92.3867 22.0483C92.8685 21.4559 93.1094 20.6128 93.1094 19.519C93.1094 18.4188 92.8685 17.5692 92.3867 16.9702C91.9115 16.3713 91.2279 16.0718 90.3359 16.0718ZM98.8906 12.3999C98.5195 12.3999 98.2005 12.2795 97.9336 12.0386C97.6732 11.7977 97.543 11.4917 97.543 11.1206C97.543 10.7495 97.6732 10.4403 97.9336 10.1929C98.2005 9.94548 98.5195 9.82178 98.8906 9.82178C99.2747 9.82178 99.6003 9.94548 99.8672 10.1929C100.134 10.4403 100.268 10.7495 100.268 11.1206C100.268 11.4722 100.134 11.7749 99.8672 12.0288C99.6003 12.2762 99.2747 12.3999 98.8906 12.3999ZM100.014 24.4995H97.748V14.4995H100.014V24.4995ZM111.889 24.4995H109.623V18.8647C109.623 16.9963 108.962 16.062 107.641 16.062C106.951 16.062 106.381 16.3224 105.932 16.8433C105.482 17.3576 105.258 18.0086 105.258 18.7964V24.4995H102.982V14.4995H105.258V16.1597H105.297C106.046 14.8966 107.126 14.2651 108.539 14.2651C109.626 14.2651 110.456 14.62 111.029 15.3296C111.602 16.0327 111.889 17.0516 111.889 18.3862V24.4995ZM123.129 20.1147H116.312C116.339 21.0392 116.622 21.7521 117.162 22.2534C117.709 22.7547 118.458 23.0054 119.408 23.0054C120.476 23.0054 121.456 22.6864 122.348 22.0483V23.8745C121.436 24.4474 120.232 24.7339 118.734 24.7339C117.263 24.7339 116.107 24.2814 115.268 23.3765C114.434 22.465 114.018 21.1857 114.018 19.5386C114.018 17.9826 114.477 16.7163 115.395 15.7397C116.319 14.7567 117.465 14.2651 118.832 14.2651C120.199 14.2651 121.257 14.7046 122.006 15.5835C122.755 16.4624 123.129 17.6831 123.129 19.2456V20.1147ZM120.941 18.5132C120.935 17.6994 120.743 17.0679 120.365 16.6187C119.988 16.1629 119.467 15.9351 118.803 15.9351C118.152 15.9351 117.598 16.1727 117.143 16.6479C116.693 17.1232 116.417 17.745 116.312 18.5132H120.941ZM131.088 16.6577C130.814 16.4429 130.421 16.3354 129.906 16.3354C129.236 16.3354 128.676 16.6382 128.227 17.2437C127.777 17.8491 127.553 18.6727 127.553 19.7144V24.4995H125.287V14.4995H127.553V16.5601H127.592C127.813 15.8569 128.152 15.3101 128.607 14.9194C129.07 14.5223 129.584 14.3237 130.15 14.3237C130.561 14.3237 130.873 14.3856 131.088 14.5093V16.6577ZM132.064 24.187V22.0874C132.911 22.7319 133.845 23.0542 134.867 23.0542C136.234 23.0542 136.918 22.6506 136.918 21.8433C136.918 21.6154 136.859 21.4233 136.742 21.2671C136.625 21.1043 136.465 20.9611 136.264 20.8374C136.068 20.7137 135.834 20.603 135.561 20.5054C135.294 20.4077 134.994 20.297 134.662 20.1733C134.252 20.0106 133.881 19.8381 133.549 19.6558C133.223 19.4735 132.95 19.2684 132.729 19.0405C132.514 18.8062 132.351 18.5425 132.24 18.2495C132.13 17.9565 132.074 17.6147 132.074 17.2241C132.074 16.7424 132.188 16.3192 132.416 15.9546C132.644 15.5835 132.95 15.2743 133.334 15.0269C133.718 14.7729 134.154 14.5841 134.643 14.4604C135.131 14.3302 135.635 14.2651 136.156 14.2651C137.081 14.2651 137.908 14.4051 138.637 14.6851V16.6675C137.934 16.1857 137.126 15.9448 136.215 15.9448C135.928 15.9448 135.668 15.9741 135.434 16.0327C135.206 16.0913 135.01 16.1727 134.848 16.2769C134.685 16.381 134.558 16.508 134.467 16.6577C134.376 16.8009 134.33 16.9604 134.33 17.1362C134.33 17.3511 134.376 17.5334 134.467 17.6831C134.558 17.8328 134.691 17.9663 134.867 18.0835C135.049 18.1942 135.264 18.2983 135.512 18.396C135.766 18.4871 136.055 18.5881 136.381 18.6987C136.811 18.8745 137.195 19.0535 137.533 19.2358C137.878 19.4181 138.171 19.6265 138.412 19.8608C138.653 20.0887 138.839 20.3556 138.969 20.6616C139.099 20.9611 139.164 21.3192 139.164 21.7358C139.164 22.2437 139.047 22.6864 138.812 23.064C138.578 23.4416 138.266 23.7541 137.875 24.0015C137.484 24.2489 137.032 24.4312 136.518 24.5483C136.01 24.672 135.473 24.7339 134.906 24.7339C133.812 24.7339 132.865 24.5516 132.064 24.187ZM142.26 24.7144C141.869 24.7144 141.537 24.5874 141.264 24.3335C140.99 24.0731 140.854 23.7638 140.854 23.4058C140.854 23.0412 140.99 22.7287 141.264 22.4683C141.537 22.2078 141.869 22.0776 142.26 22.0776C142.657 22.0776 142.992 22.2078 143.266 22.4683C143.546 22.7287 143.686 23.0412 143.686 23.4058C143.686 23.7638 143.546 24.0731 143.266 24.3335C142.992 24.5874 142.657 24.7144 142.26 24.7144ZM148.422 24.4995H146.146V9.69482H148.422V24.4995ZM152.523 12.3999C152.152 12.3999 151.833 12.2795 151.566 12.0386C151.306 11.7977 151.176 11.4917 151.176 11.1206C151.176 10.7495 151.306 10.4403 151.566 10.1929C151.833 9.94548 152.152 9.82178 152.523 9.82178C152.908 9.82178 153.233 9.94548 153.5 10.1929C153.767 10.4403 153.9 10.7495 153.9 11.1206C153.9 11.4722 153.767 11.7749 153.5 12.0288C153.233 12.2762 152.908 12.3999 152.523 12.3999ZM153.646 24.4995H151.381V14.4995H153.646V24.4995ZM165.229 14.4995L161.361 24.4995H158.91L155.229 14.4995H157.689L159.906 21.4917C160.076 22.006 160.18 22.4552 160.219 22.8394H160.248C160.307 22.3576 160.398 21.9214 160.521 21.5308L162.846 14.4995H165.229ZM175.238 20.1147H168.422C168.448 21.0392 168.731 21.7521 169.271 22.2534C169.818 22.7547 170.567 23.0054 171.518 23.0054C172.585 23.0054 173.565 22.6864 174.457 22.0483V23.8745C173.546 24.4474 172.341 24.7339 170.844 24.7339C169.372 24.7339 168.217 24.2814 167.377 23.3765C166.544 22.465 166.127 21.1857 166.127 19.5386C166.127 17.9826 166.586 16.7163 167.504 15.7397C168.428 14.7567 169.574 14.2651 170.941 14.2651C172.309 14.2651 173.367 14.7046 174.115 15.5835C174.864 16.4624 175.238 17.6831 175.238 19.2456V20.1147ZM173.051 18.5132C173.044 17.6994 172.852 17.0679 172.475 16.6187C172.097 16.1629 171.576 15.9351 170.912 15.9351C170.261 15.9351 169.708 16.1727 169.252 16.6479C168.803 17.1232 168.526 17.745 168.422 18.5132H173.051Z" fill="white"/>
<rect y="0.499512" width="14.2219" height="14.2219" fill="white"/>
<rect y="18" width="14.2219" height="14.2219" fill="white"/>
<path d="M18 0.499512H39.3328V5.83272H18V0.499512Z" fill="white"/>
<path d="M17.7773 18.2773H39.1102V23.6106H17.7773V18.2773Z" fill="white"/>
<rect x="21" y="9" width="14.2219" height="5.33321" fill="white"/>
<rect x="17.7773" y="27.165" width="14.2219" height="5.33321" fill="white"/>
</svg>
